<?xml version="1.0" encoding="UTF-8"?>
<!DOCTYPE svg PUBLIC "-//W3C//DTD SVG 1.1//EN" "http://www.w3.org/Graphics/SVG/1.1/DTD/svg11.dtd">
<svg xmlns="http://www.w3.org/2000/svg" version="1.1" width="4000px" height="4000px" style="shape-rendering:geometricPrecision; text-rendering:geometricPrecision; image-rendering:optimizeQuality; fill-rule:evenodd; clip-rule:evenodd" xmlns:xlink="http://www.w3.org/1999/xlink">
<g><path style="opacity:0.149" fill="#d28bfc" d="M 1900.5,37.5 C 1919.5,37.3334 1938.5,37.5001 1957.5,38C 1938.83,38.3333 1920.17,38.6667 1901.5,39C 1889.77,39.1022 1878.11,39.9355 1866.5,41.5C 1864.5,41.1667 1862.5,40.8333 1860.5,40.5C 1851.83,41.5008 1843.17,42.5008 1834.5,43.5C 1595.37,59.8451 1362.7,126.012 1136.5,242C 867.679,384.455 645.846,580.622 471,830.5C 288.38,1093.9 175.38,1385.23 132,1704.5C 120.171,1793.11 114.171,1882.11 114,1971.5C 113.38,1644.98 187.713,1336.65 337,1046.5C 448.114,834.642 593.281,648.809 772.5,489C 998.776,290.507 1259.44,155.507 1554.5,84C 1668.48,57.3371 1783.81,41.8371 1900.5,37.5 Z"/></g>
<g><path style="opacity:0.144" fill="#d28bfc" d="M 2689.5,193.5 C 2689.5,194.167 2689.5,194.833 2689.5,195.5C 2535.22,127.53 2378.56,81.6968 2219.5,58C 2218.32,56.683 2216.82,56.5163 2215,57.5C 2213.29,57.5607 2211.96,56.8941 2211,55.5C 2208.41,56.9817 2206.07,56.6483 2204,54.5C 2201.41,55.9817 2199.07,55.6483 2197,53.5C 2194.08,55.0135 2191.42,54.6801 2189,52.5C 2186.41,53.9817 2184.07,53.6483 2182,51.5C 2180.94,52.0968 2179.77,52.4302 2178.5,52.5C 2174.1,51.8106 2169.6,50.8106 2165,49.5C 2162.08,51.0135 2159.42,50.6801 2157,48.5C 2155.77,49.1078 2154.44,49.4411 2153,49.5C 2148.04,48.686 2143.04,47.686 2138,46.5C 2134.08,47.8238 2130.25,47.4904 2126.5,45.5C 2122.8,46.3381 2119.14,46.0047 2115.5,44.5C 2111.49,45.2405 2107.49,44.9072 2103.5,43.5C 2099.17,44.1741 2094.84,43.8407 2090.5,42.5C 2089.17,42.8333 2087.83,43.1667 2086.5,43.5C 2077.83,42.5008 2069.17,41.5008 2060.5,40.5C 2058.5,40.8333 2056.5,41.1667 2054.5,41.5C 2042.89,39.9355 2031.23,39.1022 2019.5,39C 2000.83,38.6667 1982.17,38.3333 1963.5,38C 2216.72,38.0091 2458.72,89.8424 2689.5,193.5 Z"/></g>
<g><path style="opacity:0.998" fill="#d28afb" d="M 2689.5,216.5 C 2688.04,221.705 2687.37,227.039 2687.5,232.5C 2691.23,266.145 2691.4,299.812 2688,333.5C 2681.45,370.907 2673.12,407.907 2663,444.5C 2658.59,458.055 2653.59,471.388 2648,484.5C 2629.53,409.399 2587.36,351.899 2521.5,312C 2483.86,289.115 2443.86,271.448 2401.5,259C 2350.52,243.756 2298.52,233.59 2245.5,228.5C 2218.39,225.032 2191.06,222.365 2163.5,220.5C 2156.83,220.287 2150.16,219.954 2143.5,219.5C 2096.36,216.886 2049.03,215.886 2001.5,216.5C 1982.3,216.652 1963.3,217.652 1944.5,219.5C 1928.29,220.079 1912.29,221.413 1896.5,223.5C 1895.83,223.5 1895.17,223.5 1894.5,223.5C 1881.95,224.123 1869.61,225.457 1857.5,227.5C 1847.43,227.974 1837.43,228.974 1827.5,230.5C 1819.27,230.783 1811.27,231.783 1803.5,233.5C 1797.29,233.523 1791.29,234.19 1785.5,235.5C 1772.25,236.281 1759.25,237.947 1746.5,240.5C 1745.83,240.5 1745.17,240.5 1744.5,240.5C 1736.62,241.313 1728.95,242.647 1721.5,244.5C 1717.39,244.74 1713.39,245.407 1709.5,246.5C 1702.28,247.312 1695.28,248.646 1688.5,250.5C 1627.35,263.159 1567.35,279.993 1508.5,301C 1468.04,316.732 1429.04,335.398 1391.5,357C 1331.84,391.83 1272.5,427.163 1213.5,463C 1184.93,483.123 1157.26,504.456 1130.5,527C 1075.2,575.295 1020.2,623.962 965.5,673C 908.81,728.35 854.31,785.516 802,844.5C 751.917,893.597 699.75,940.097 645.5,984C 626.726,1000.77 608.559,1018.27 591,1036.5C 588.757,1040.75 585.757,1044.41 582,1047.5C 581.365,1049.62 580.531,1051.62 579.5,1053.5C 580.129,1056 581.796,1057.33 584.5,1057.5C 586.802,1056.97 589.135,1056.64 591.5,1056.5C 604.122,1058.23 616.789,1058.73 629.5,1058C 685.696,1049.45 741.03,1037.12 795.5,1021C 811.283,1015.46 826.949,1009.63 842.5,1003.5C 834.248,1041.77 822.415,1079.1 807,1115.5C 786.849,1155.47 767.515,1195.8 749,1236.5C 731.539,1267.76 714.872,1299.42 699,1331.5C 689,1348.17 679,1364.83 669,1381.5C 665.333,1389.5 661.667,1397.5 658,1405.5C 651.44,1410.04 648.607,1416.37 649.5,1424.5C 651.954,1424.32 654.121,1424.99 656,1426.5C 662.08,1424.58 667.913,1422.08 673.5,1419C 707.167,1397.33 740.833,1375.67 774.5,1354C 805.414,1332.93 834.748,1309.76 862.5,1284.5C 862.833,1285.83 863.167,1287.17 863.5,1288.5C 855.745,1350.03 846.578,1411.37 836,1472.5C 831.755,1505.46 827.922,1538.46 824.5,1571.5C 824.295,1574.92 824.961,1578.09 826.5,1581C 825.233,1585.93 827.233,1588.43 832.5,1588.5C 836.338,1588.75 839.672,1587.58 842.5,1585C 847.286,1579.27 851.452,1573.1 855,1566.5C 871.043,1548.13 886.709,1529.46 902,1510.5C 902.88,1534.64 905.214,1558.64 909,1582.5C 915.439,1628.03 924.439,1673.03 936,1717.5C 938.047,1720.96 939.713,1724.63 941,1728.5C 942.333,1731.17 944.333,1733.17 947,1734.5C 948.732,1737.39 950.232,1740.39 951.5,1743.5C 928.629,1763.88 911.129,1788.22 899,1816.5C 888.562,1838.81 879.895,1861.81 873,1885.5C 861.773,1932.05 859.44,1979.05 866,2026.5C 871.039,2049.99 876.706,2073.32 883,2096.5C 892.728,2121.29 904.061,2145.29 917,2168.5C 930.428,2198.46 944.428,2228.12 959,2257.5C 974.037,2280.87 992.87,2300.71 1015.5,2317C 1035.93,2326.78 1056.93,2328.12 1078.5,2321C 1083.29,2317.88 1087.79,2314.38 1092,2310.5C 1151.53,2482.19 1245.36,2631.69 1373.5,2759C 1448.07,2831.55 1532.07,2890.88 1625.5,2937C 1636.29,2942.4 1647.29,2947.23 1658.5,2951.5C 1659.17,2952.17 1659.83,2952.83 1660.5,2953.5C 1660.7,2965.09 1661.7,2976.76 1663.5,2988.5C 1663.48,2992.97 1663.15,2997.47 1662.5,3002C 1663.17,3005.33 1663.83,3008.67 1664.5,3012C 1663.69,3018.11 1663.36,3024.11 1663.5,3030C 1663.61,3031.68 1664.27,3032.85 1665.5,3033.5C 1665.5,3033.83 1665.5,3034.17 1665.5,3034.5C 1665.5,3123.5 1665.5,3212.5 1665.5,3301.5C 1597.31,3326.73 1528.64,3350.9 1459.5,3374C 1403.89,3395.98 1347.89,3416.98 1291.5,3437C 1238.17,3459.67 1184.83,3482.33 1131.5,3505C 1109.78,3514.36 1088.78,3525.02 1068.5,3537C 1043.83,3553.67 1019.17,3570.33 994.5,3587C 981.316,3596.7 968.316,3606.53 955.5,3616.5C 791.752,3504.93 648.918,3370.6 527,3213.5C 299.033,2913.98 164.7,2574.98 124,2196.5C 115.426,2124.07 112.092,2051.4 114,1978.5C 114.333,1998.5 114.667,2018.5 115,2038.5C 108.965,1661.61 198.965,1310.61 385,985.5C 551.098,701.734 775.265,475.234 1057.5,306C 1408.23,102.45 1785.89,25.1164 2190.5,74C 2365.09,97.3535 2531.43,144.853 2689.5,216.5 Z"/></g>
<g><path style="opacity:0.152" fill="#040205" d="M 2689.5,193.5 C 2698.02,197.261 2706.35,201.261 2714.5,205.5C 2713.83,205.5 2713.5,205.833 2713.5,206.5C 2705.19,203.344 2697.19,199.677 2689.5,195.5C 2689.5,194.833 2689.5,194.167 2689.5,193.5 Z"/></g>
<g><path style="opacity:0.243" fill="#211727" d="M 2714.5,205.5 C 2728.15,211.324 2741.48,217.657 2754.5,224.5C 2755.11,225.391 2755.44,226.391 2755.5,227.5C 2741.43,220.467 2727.43,213.467 2713.5,206.5C 2713.5,205.833 2713.83,205.5 2714.5,205.5 Z"/></g>
<g><path style="opacity:1" fill="#392f4a" d="M 2001.5,216.5 C 2001.5,216.833 2001.5,217.167 2001.5,217.5C 1984.49,217.85 1967.49,218.517 1950.5,219.5C 1948.5,219.5 1946.5,219.5 1944.5,219.5C 1963.3,217.652 1982.3,216.652 2001.5,216.5 Z"/></g>
<g><path style="opacity:1" fill="#000000" d="M 2689.5,216.5 C 2697.08,219.288 2704.41,222.621 2711.5,226.5C 2718.92,237.647 2727.09,248.314 2736,258.5C 2763.24,294.278 2775.41,334.778 2772.5,380C 2772.88,427.983 2768.38,475.483 2759,522.5C 2755.3,533.943 2750.63,544.943 2745,555.5C 2734.89,569.939 2723.06,582.772 2709.5,594C 2721.46,593.646 2733.12,595.312 2744.5,599C 2757.64,604.571 2770.97,609.571 2784.5,614C 2794.32,618.823 2803.32,624.823 2811.5,632C 2818.33,638.167 2825.17,644.333 2832,650.5C 2849,669.5 2866,688.5 2883,707.5C 2899.43,728.017 2916.09,748.351 2933,768.5C 2971.46,819.701 3004.13,874.701 3031,933.5C 3049.18,974.86 3068.18,1015.86 3088,1056.5C 3101.33,1080.5 3114.67,1104.5 3128,1128.5C 3148.1,1171.13 3168.76,1213.46 3190,1255.5C 3223.8,1312.65 3256.8,1370.32 3289,1428.5C 3299.52,1444.35 3311.52,1459.02 3325,1472.5C 3326.43,1475.35 3327.26,1478.35 3327.5,1481.5C 3322.22,1480.69 3317.55,1478.53 3313.5,1475C 3304.45,1474.1 3295.79,1471.76 3287.5,1468C 3254.89,1449.05 3224.22,1427.39 3195.5,1403C 3169.97,1378.47 3144.13,1354.3 3118,1330.5C 3121.53,1346.95 3125.86,1363.29 3131,1379.5C 3140.3,1420.74 3151.64,1461.41 3165,1501.5C 3167.27,1509.27 3169.1,1517.1 3170.5,1525C 3170.2,1527.8 3168.7,1529.3 3166,1529.5C 3160.83,1528.17 3156.33,1525.67 3152.5,1522C 3138.29,1505.46 3124.46,1488.62 3111,1471.5C 3107.98,1468.32 3104.82,1465.32 3101.5,1462.5C 3097.07,1531.04 3086.9,1598.7 3071,1665.5C 3063.87,1689.34 3057.37,1713.34 3051.5,1737.5C 3050.77,1738.81 3049.93,1740.14 3049,1741.5C 3046.52,1739.03 3044.02,1736.7 3041.5,1734.5C 3039.4,1732.9 3037.4,1731.07 3035.5,1729C 3029.39,1726.51 3022.39,1724.67 3014.5,1723.5C 2996.34,1718.45 2985.01,1725.12 2980.5,1743.5C 2955.32,1743.58 2929.98,1743.58 2904.5,1743.5C 2907.3,1674.89 2909.96,1606.22 2912.5,1537.5C 2912.52,1496.24 2909.35,1455.24 2903,1414.5C 2901.61,1407.32 2899.61,1400.32 2897,1393.5C 2891.49,1387.66 2885.66,1382.16 2879.5,1377C 2844.47,1352.99 2811.47,1326.32 2780.5,1297C 2732.59,1251.45 2688.76,1202.61 2649,1150.5C 2601.61,1085.4 2564.95,1014.4 2539,937.5C 2529.79,919.744 2521.12,901.744 2513,883.5C 2511.18,878.554 2509.68,873.554 2508.5,868.5C 2491.23,870.826 2473.89,872.659 2456.5,874C 2367.84,878.147 2279.18,882.147 2190.5,886C 2132.54,890.619 2074.54,894.619 2016.5,898C 1864.76,901.539 1713.09,907.206 1561.5,915C 1472.36,1006.47 1382.86,1097.64 1293,1188.5C 1245.5,1243.11 1196.84,1296.78 1147,1349.5C 1123.15,1479.69 1110.98,1611.02 1110.5,1743.5C 1087.5,1743.5 1064.5,1743.5 1041.5,1743.5C 1035.32,1736.15 1028.98,1728.99 1022.5,1722C 1017.96,1719.69 1013.13,1718.52 1008,1718.5C 996.442,1719.76 985.609,1723.26 975.5,1729C 968.324,1733.75 961.324,1738.75 954.5,1744C 953.423,1744.47 952.423,1744.3 951.5,1743.5C 950.232,1740.39 948.732,1737.39 947,1734.5C 944.333,1733.17 942.333,1731.17 941,1728.5C 939.713,1724.63 938.047,1720.96 936,1717.5C 924.439,1673.03 915.439,1628.03 909,1582.5C 905.214,1558.64 902.88,1534.64 902,1510.5C 886.709,1529.46 871.043,1548.13 855,1566.5C 851.452,1573.1 847.286,1579.27 842.5,1585C 839.672,1587.58 836.338,1588.75 832.5,1588.5C 827.233,1588.43 825.233,1585.93 826.5,1581C 824.961,1578.09 824.295,1574.92 824.5,1571.5C 827.922,1538.46 831.755,1505.46 836,1472.5C 846.578,1411.37 855.745,1350.03 863.5,1288.5C 863.167,1287.17 862.833,1285.83 862.5,1284.5C 834.748,1309.76 805.414,1332.93 774.5,1354C 740.833,1375.67 707.167,1397.33 673.5,1419C 667.913,1422.08 662.08,1424.58 656,1426.5C 654.121,1424.99 651.954,1424.32 649.5,1424.5C 648.607,1416.37 651.44,1410.04 658,1405.5C 661.667,1397.5 665.333,1389.5 669,1381.5C 679,1364.83 689,1348.17 699,1331.5C 714.872,1299.42 731.539,1267.76 749,1236.5C 767.515,1195.8 786.849,1155.47 807,1115.5C 822.415,1079.1 834.248,1041.77 842.5,1003.5C 826.949,1009.63 811.283,1015.46 795.5,1021C 741.03,1037.12 685.696,1049.45 629.5,1058C 616.789,1058.73 604.122,1058.23 591.5,1056.5C 589.135,1056.64 586.802,1056.97 584.5,1057.5C 581.796,1057.33 580.129,1056 579.5,1053.5C 580.531,1051.62 581.365,1049.62 582,1047.5C 585.757,1044.41 588.757,1040.75 591,1036.5C 608.559,1018.27 626.726,1000.77 645.5,984C 699.75,940.097 751.917,893.597 802,844.5C 854.31,785.516 908.81,728.35 965.5,673C 1020.2,623.962 1075.2,575.295 1130.5,527C 1157.26,504.456 1184.93,483.123 1213.5,463C 1272.5,427.163 1331.84,391.83 1391.5,357C 1429.04,335.398 1468.04,316.732 1508.5,301C 1567.35,279.993 1627.35,263.159 1688.5,250.5C 1695.9,250.547 1702.9,249.214 1709.5,246.5C 1713.39,245.407 1717.39,244.74 1721.5,244.5C 1729.54,244.551 1737.2,243.217 1744.5,240.5C 1745.17,240.5 1745.83,240.5 1746.5,240.5C 1759.7,239.392 1772.7,237.725 1785.5,235.5C 1791.29,234.19 1797.29,233.523 1803.5,233.5C 1811.17,233.095 1818.83,232.595 1826.5,232C 1827.06,231.617 1827.39,231.117 1827.5,230.5C 1837.43,228.974 1847.43,227.974 1857.5,227.5C 1867.87,227.681 1878.2,227.181 1888.5,226C 1890.97,225.963 1892.97,225.13 1894.5,223.5C 1895.17,223.5 1895.83,223.5 1896.5,223.5C 1914.7,222.934 1932.7,221.6 1950.5,219.5C 1967.49,218.517 1984.49,217.85 2001.5,217.5C 2042.55,216.913 2083.55,217.913 2124.5,220.5C 2130.79,219.581 2137.13,219.247 2143.5,219.5C 2150.16,219.954 2156.83,220.287 2163.5,220.5C 2162.74,221.268 2161.74,221.768 2160.5,222C 2188.83,224.351 2217.16,226.518 2245.5,228.5C 2298.52,233.59 2350.52,243.756 2401.5,259C 2443.86,271.448 2483.86,289.115 2521.5,312C 2587.36,351.899 2629.53,409.399 2648,484.5C 2653.59,471.388 2658.59,458.055 2663,444.5C 2673.12,407.907 2681.45,370.907 2688,333.5C 2691.4,299.812 2691.23,266.145 2687.5,232.5C 2687.37,227.039 2688.04,221.705 2689.5,216.5 Z"/></g>
<g><path style="opacity:1" fill="#181820" d="M 2001.5,217.5 C 2001.5,217.167 2001.5,216.833 2001.5,216.5C 2049.03,215.886 2096.36,216.886 2143.5,219.5C 2137.13,219.247 2130.79,219.581 2124.5,220.5C 2083.55,217.913 2042.55,216.913 2001.5,217.5 Z"/></g>
<g><path style="opacity:1" fill="#211f2c" d="M 1944.5,219.5 C 1946.5,219.5 1948.5,219.5 1950.5,219.5C 1932.7,221.6 1914.7,222.934 1896.5,223.5C 1912.29,221.413 1928.29,220.079 1944.5,219.5 Z"/></g>
<g><path style="opacity:1" fill="#17161d" d="M 2163.5,220.5 C 2191.06,222.365 2218.39,225.032 2245.5,228.5C 2217.16,226.518 2188.83,224.351 2160.5,222C 2161.74,221.768 2162.74,221.268 2163.5,220.5 Z"/></g>
<g><path style="opacity:0.15" fill="#d28afb" d="M 2754.5,224.5 C 2975.68,335.44 3167.51,484.773 3330,672.5C 3590.62,978.92 3745.62,1333.25 3795,1735.5C 3804.94,1813.87 3808.94,1892.54 3807,1971.5C 3805.1,1598.2 3708.43,1251.87 3517,932.5C 3375.16,701.312 3192.66,508.146 2969.5,353C 2901.26,306.363 2829.93,264.53 2755.5,227.5C 2755.44,226.391 2755.11,225.391 2754.5,224.5 Z"/></g>
<g><path style="opacity:1" fill="#1c1a24" d="M 1894.5,223.5 C 1892.97,225.13 1890.97,225.963 1888.5,226C 1878.2,227.181 1867.87,227.681 1857.5,227.5C 1869.61,225.457 1881.95,224.123 1894.5,223.5 Z"/></g>
<g><path style="opacity:0.998" fill="#d28afb" d="M 2711.5,226.5 C 2976.49,351.722 3200.33,529.722 3383,760.5C 3622.54,1069.46 3760.87,1420.46 3798,1813.5C 3804.43,1888.19 3807.1,1963.19 3806,2038.5C 3806.33,2018.5 3806.67,1998.5 3807,1978.5C 3807.33,2314.47 3731,2630.47 3578,2926.5C 3447.86,3173.53 3272.02,3383.36 3050.5,3556C 3037.62,3565.72 3024.62,3575.22 3011.5,3584.5C 3000.85,3577.53 2990.18,3570.53 2979.5,3563.5C 2979.5,3560.83 2979.5,3558.17 2979.5,3555.5C 2976.32,3554.91 2973.99,3555.91 2972.5,3558.5C 2950.19,3542.33 2926.52,3528.17 2901.5,3516C 2847.72,3492.94 2794.05,3469.61 2740.5,3446C 2675.6,3422.26 2610.93,3397.92 2546.5,3373C 2477.77,3350.7 2409.77,3326.54 2342.5,3300.5C 2342.5,3211.83 2342.5,3123.17 2342.5,3034.5C 2342.5,3034.17 2342.5,3033.83 2342.5,3033.5C 2343.5,3033.5 2344.5,3033.5 2345.5,3033.5C 2345.92,3031.33 2345.92,3029.33 2345.5,3027.5C 2346.09,3025.62 2346.76,3023.78 2347.5,3022C 2347.22,3019.2 2346.56,3016.2 2345.5,3013C 2346.02,3012.05 2346.69,3011.22 2347.5,3010.5C 2346.94,2999.4 2346.6,2988.23 2346.5,2977C 2347.85,2968.9 2348.85,2960.73 2349.5,2952.5C 2349.5,2952.17 2349.5,2951.83 2349.5,2951.5C 2431.75,2915.65 2507.09,2869.15 2575.5,2812C 2713.45,2694.01 2817.62,2551.18 2888,2383.5C 2897.8,2359.28 2907.3,2334.94 2916.5,2310.5C 2930.42,2323.99 2947.08,2329.15 2966.5,2326C 2976.41,2324.81 2985.75,2321.81 2994.5,2317C 3018.56,2299.94 3038.06,2278.78 3053,2253.5C 3072.15,2212.53 3091.82,2171.86 3112,2131.5C 3118.06,2117.33 3123.73,2102.99 3129,2088.5C 3134.38,2067.26 3139.38,2045.93 3144,2024.5C 3152,1967.86 3146.67,1912.53 3128,1858.5C 3118.49,1834.63 3107.82,1811.29 3096,1788.5C 3083.82,1769.16 3068.99,1752.16 3051.5,1737.5C 3057.37,1713.34 3063.87,1689.34 3071,1665.5C 3086.9,1598.7 3097.07,1531.04 3101.5,1462.5C 3104.82,1465.32 3107.98,1468.32 3111,1471.5C 3124.46,1488.62 3138.29,1505.46 3152.5,1522C 3156.33,1525.67 3160.83,1528.17 3166,1529.5C 3168.7,1529.3 3170.2,1527.8 3170.5,1525C 3169.1,1517.1 3167.27,1509.27 3165,1501.5C 3151.64,1461.41 3140.3,1420.74 3131,1379.5C 3125.86,1363.29 3121.53,1346.95 3118,1330.5C 3144.13,1354.3 3169.97,1378.47 3195.5,1403C 3224.22,1427.39 3254.89,1449.05 3287.5,1468C 3295.79,1471.76 3304.45,1474.1 3313.5,1475C 3317.55,1478.53 3322.22,1480.69 3327.5,1481.5C 3327.26,1478.35 3326.43,1475.35 3325,1472.5C 3311.52,1459.02 3299.52,1444.35 3289,1428.5C 3256.8,1370.32 3223.8,1312.65 3190,1255.5C 3168.76,1213.46 3148.1,1171.13 3128,1128.5C 3114.67,1104.5 3101.33,1080.5 3088,1056.5C 3068.18,1015.86 3049.18,974.86 3031,933.5C 3004.13,874.701 2971.46,819.701 2933,768.5C 2916.09,748.351 2899.43,728.017 2883,707.5C 2866,688.5 2849,669.5 2832,650.5C 2825.17,644.333 2818.33,638.167 2811.5,632C 2803.32,624.823 2794.32,618.823 2784.5,614C 2770.97,609.571 2757.64,604.571 2744.5,599C 2733.12,595.312 2721.46,593.646 2709.5,594C 2723.06,582.772 2734.89,569.939 2745,555.5C 2750.63,544.943 2755.3,533.943 2759,522.5C 2768.38,475.483 2772.88,427.983 2772.5,380C 2775.41,334.778 2763.24,294.278 2736,258.5C 2727.09,248.314 2718.92,237.647 2711.5,226.5 Z"/></g>
<g><path style="opacity:1" fill="#2d273b" d="M 1827.5,230.5 C 1827.39,231.117 1827.06,231.617 1826.5,232C 1818.83,232.595 1811.17,233.095 1803.5,233.5C 1811.27,231.783 1819.27,230.783 1827.5,230.5 Z"/></g>
<g><path style="opacity:1" fill="#392f4a" d="M 1785.5,235.5 C 1772.7,237.725 1759.7,239.392 1746.5,240.5C 1759.25,237.947 1772.25,236.281 1785.5,235.5 Z"/></g>
<g><path style="opacity:1" fill="#2a2536" d="M 1744.5,240.5 C 1737.2,243.217 1729.54,244.551 1721.5,244.5C 1728.95,242.647 1736.62,241.313 1744.5,240.5 Z"/></g>
<g><path style="opacity:1" fill="#252130" d="M 1709.5,246.5 C 1702.9,249.214 1695.9,250.547 1688.5,250.5C 1695.28,248.646 1702.28,247.312 1709.5,246.5 Z"/></g>
<g><path style="opacity:1" fill="#faddab" d="M 2904.5,1743.5 C 2893.68,1744.49 2882.68,1744.83 2871.5,1744.5C 2869.15,1765.94 2866.15,1787.28 2862.5,1808.5C 2875.25,1805.34 2887.92,1801.68 2900.5,1797.5C 2899.37,1826.14 2899.2,1854.81 2900,1883.5C 2900.2,1885.29 2901.03,1886.62 2902.5,1887.5C 2918.19,1857.8 2934.69,1828.47 2952,1799.5C 2955.64,1792.38 2959.14,1785.21 2962.5,1778C 2961.91,1777.54 2961.24,1777.37 2960.5,1777.5C 2962.29,1776.69 2964.29,1776.19 2966.5,1776C 2972.23,1765.46 2977.56,1754.79 2982.5,1744C 2981.91,1743.54 2981.24,1743.37 2980.5,1743.5C 2985.01,1725.12 2996.34,1718.45 3014.5,1723.5C 3014.79,1724.65 3015.62,1725.32 3017,1725.5C 3025.39,1726.38 3032.05,1729.38 3037,1734.5C 3038.41,1733.59 3039.91,1733.59 3041.5,1734.5C 3044.02,1736.7 3046.52,1739.03 3049,1741.5C 3049.93,1740.14 3050.77,1738.81 3051.5,1737.5C 3068.99,1752.16 3083.82,1769.16 3096,1788.5C 3107.82,1811.29 3118.49,1834.63 3128,1858.5C 3146.67,1912.53 3152,1967.86 3144,2024.5C 3139.38,2045.93 3134.38,2067.26 3129,2088.5C 3123.73,2102.99 3118.06,2117.33 3112,2131.5C 3091.82,2171.86 3072.15,2212.53 3053,2253.5C 3038.06,2278.78 3018.56,2299.94 2994.5,2317C 2985.75,2321.81 2976.41,2324.81 2966.5,2326C 2947.08,2329.15 2930.42,2323.99 2916.5,2310.5C 2907.3,2334.94 2897.8,2359.28 2888,2383.5C 2817.62,2551.18 2713.45,2694.01 2575.5,2812C 2507.09,2869.15 2431.75,2915.65 2349.5,2951.5C 2344.13,2951.52 2338.79,2952.02 2333.5,2953C 2262.86,2968.5 2191.86,2982.16 2120.5,2994C 2093.81,2995.84 2067.14,2998 2040.5,3000.5C 2028.57,2999.15 2016.74,2999.81 2005,3002.5C 1970.79,3000.18 1936.63,2997.35 1902.5,2994C 1830.16,2981.72 1758.16,2967.72 1686.5,2952C 1680.21,2950.84 1673.88,2950.01 1667.5,2949.5C 1664.23,2949.34 1661.23,2950.01 1658.5,2951.5C 1647.29,2947.23 1636.29,2942.4 1625.5,2937C 1532.07,2890.88 1448.07,2831.55 1373.5,2759C 1245.36,2631.69 1151.53,2482.19 1092,2310.5C 1087.79,2314.38 1083.29,2317.88 1078.5,2321C 1056.93,2328.12 1035.93,2326.78 1015.5,2317C 992.87,2300.71 974.037,2280.87 959,2257.5C 944.428,2228.12 930.428,2198.46 917,2168.5C 904.061,2145.29 892.728,2121.29 883,2096.5C 876.706,2073.32 871.039,2049.99 866,2026.5C 859.44,1979.05 861.773,1932.05 873,1885.5C 879.895,1861.81 888.562,1838.81 899,1816.5C 911.129,1788.22 928.629,1763.88 951.5,1743.5C 952.423,1744.3 953.423,1744.47 954.5,1744C 961.324,1738.75 968.324,1733.75 975.5,1729C 985.609,1723.26 996.442,1719.76 1008,1718.5C 1013.13,1718.52 1017.96,1719.69 1022.5,1722C 1028.98,1728.99 1035.32,1736.15 1041.5,1743.5C 1040.43,1744.25 1040.26,1745.25 1041,1746.5C 1045.3,1756.09 1049.97,1765.43 1055,1774.5C 1056.3,1775.08 1057.47,1775.75 1058.5,1776.5C 1057.96,1776.56 1057.62,1776.89 1057.5,1777.5C 1065.27,1791.15 1072.27,1805.15 1078.5,1819.5C 1078.34,1821.2 1078.51,1822.87 1079,1824.5C 1080.93,1827.94 1083.1,1831.28 1085.5,1834.5C 1086.27,1835.61 1087.27,1836.28 1088.5,1836.5C 1088.83,1837.17 1089.17,1837.83 1089.5,1838.5C 1089.69,1843.22 1091.69,1846.89 1095.5,1849.5C 1098.15,1852.97 1100.65,1856.63 1103,1860.5C 1103.62,1861.45 1103.45,1862.28 1102.5,1863C 1103.93,1863.47 1105.1,1864.3 1106,1865.5C 1106.6,1867.91 1107.77,1869.91 1109.5,1871.5C 1109.78,1872.29 1110.28,1872.96 1111,1873.5C 1111.81,1869.31 1111.65,1865.31 1110.5,1861.5C 1110.5,1838.5 1110.5,1815.5 1110.5,1792.5C 1126.23,1799.41 1142.56,1804.74 1159.5,1808.5C 1157.77,1793.79 1155.61,1779.12 1153,1764.5C 1152.5,1757.49 1152,1750.49 1151.5,1743.5C 1137.85,1744.72 1124.18,1744.72 1110.5,1743.5C 1110.98,1611.02 1123.15,1479.69 1147,1349.5C 1196.84,1296.78 1245.5,1243.11 1293,1188.5C 1382.86,1097.64 1472.36,1006.47 1561.5,915C 1713.09,907.206 1864.76,901.539 2016.5,898C 2074.54,894.619 2132.54,890.619 2190.5,886C 2279.18,882.147 2367.84,878.147 2456.5,874C 2473.89,872.659 2491.23,870.826 2508.5,868.5C 2509.68,873.554 2511.18,878.554 2513,883.5C 2521.12,901.744 2529.79,919.744 2539,937.5C 2564.95,1014.4 2601.61,1085.4 2649,1150.5C 2688.76,1202.61 2732.59,1251.45 2780.5,1297C 2811.47,1326.32 2844.47,1352.99 2879.5,1377C 2885.66,1382.16 2891.49,1387.66 2897,1393.5C 2899.61,1400.32 2901.61,1407.32 2903,1414.5C 2909.35,1455.24 2912.52,1496.24 2912.5,1537.5C 2909.96,1606.22 2907.3,1674.89 2904.5,1743.5 Z"/></g>
<g><path style="opacity:1" fill="#443d2f" d="M 1468.5,1398.5 C 1450.09,1398.02 1431.76,1398.69 1413.5,1400.5C 1416.58,1399.14 1419.91,1398.31 1423.5,1398C 1438.67,1397.17 1453.67,1397.34 1468.5,1398.5 Z"/></g>
<g><path style="opacity:1" fill="#020101" d="M 1493.5,1401.5 C 1506.16,1403.83 1518.83,1406.17 1531.5,1408.5C 1543.65,1408.56 1555.98,1408.73 1568.5,1409C 1578.23,1409.73 1587.89,1410.9 1597.5,1412.5C 1613.88,1415.11 1629.88,1419.11 1645.5,1424.5C 1645.39,1425.12 1645.06,1425.62 1644.5,1426C 1662.27,1431.88 1679.6,1438.88 1696.5,1447C 1698.13,1447.49 1699.8,1447.66 1701.5,1447.5C 1734.33,1461.24 1765.33,1478.08 1794.5,1498C 1799.48,1501.97 1803.31,1506.8 1806,1512.5C 1806.93,1517.08 1805.1,1518.58 1800.5,1517C 1797.47,1513.63 1794.13,1510.63 1790.5,1508C 1740.96,1476.9 1688.3,1452.23 1632.5,1434C 1614.72,1428.72 1596.72,1424.72 1578.5,1422C 1655.14,1441.16 1725.47,1473.49 1789.5,1519C 1792.17,1521.67 1794.83,1524.33 1797.5,1527C 1728.87,1508.34 1658.87,1500.01 1587.5,1502C 1518.39,1505.61 1451.72,1520.28 1387.5,1546C 1360.12,1557.52 1334.45,1571.85 1310.5,1589C 1308.02,1592.65 1305.02,1595.81 1301.5,1598.5C 1298.43,1596.53 1297.1,1593.7 1297.5,1590C 1299.95,1565.35 1305.79,1541.52 1315,1518.5C 1324.95,1487.27 1339.61,1458.6 1359,1432.5C 1368.86,1420.45 1381.03,1411.79 1395.5,1406.5C 1402.18,1406.24 1408.51,1404.74 1414.5,1402C 1420.19,1401.53 1425.86,1400.86 1431.5,1400C 1452.21,1399.2 1472.88,1399.7 1493.5,1401.5 Z"/></g>
<g><path style="opacity:1" fill="#020101" d="M 2584.5,1398.5 C 2586.29,1399.31 2588.29,1399.81 2590.5,1400C 2589.5,1400.33 2588.5,1400.67 2587.5,1401C 2594.36,1401.78 2601.02,1403.12 2607.5,1405C 2613.52,1408.26 2619.85,1410.76 2626.5,1412.5C 2630.26,1413.55 2633.59,1415.38 2636.5,1418C 2650.69,1431.18 2662.19,1446.35 2671,1463.5C 2685.46,1492.42 2697.13,1522.42 2706,1553.5C 2710.04,1567.45 2711.54,1581.62 2710.5,1596C 2709.9,1597.3 2708.9,1598.13 2707.5,1598.5C 2703.67,1595.51 2700.34,1592.01 2697.5,1588C 2672.8,1570.02 2646.14,1555.36 2617.5,1544C 2537.41,1512.98 2454.41,1498.82 2368.5,1501.5C 2360.49,1501.33 2352.49,1501.5 2344.5,1502C 2343.58,1502.28 2342.92,1502.78 2342.5,1503.5C 2301.64,1507.31 2261.31,1514.14 2221.5,1524C 2219.06,1525.3 2216.56,1526.47 2214,1527.5C 2212.74,1527.15 2212.41,1526.48 2213,1525.5C 2256.58,1491.61 2304.41,1464.78 2356.5,1445C 2379.94,1436.8 2402.28,1429.3 2423.5,1422.5C 2386.07,1429.48 2350.07,1440.98 2315.5,1457C 2281.03,1471.23 2248.36,1488.57 2217.5,1509C 2214.15,1511.35 2211.15,1514.02 2208.5,1517C 2205.43,1518.16 2203.77,1517.16 2203.5,1514C 2204.33,1510.51 2205.83,1507.35 2208,1504.5C 2220.05,1494.56 2232.88,1485.72 2246.5,1478C 2286.08,1455.54 2327.41,1436.88 2370.5,1422C 2383.91,1417.73 2397.58,1414.56 2411.5,1412.5C 2419.17,1411.53 2426.83,1410.37 2434.5,1409C 2449.35,1408.68 2464.02,1408.52 2478.5,1408.5C 2479.17,1408.5 2479.83,1408.5 2480.5,1408.5C 2492.54,1406.79 2504.54,1404.63 2516.5,1402C 2526.26,1401.71 2535.93,1400.71 2545.5,1399C 2558.5,1398.5 2571.5,1398.33 2584.5,1398.5 Z"/></g>
<g><path style="opacity:1" fill="#1d1a15" d="M 1468.5,1398.5 C 1477.09,1398.49 1485.42,1399.49 1493.5,1401.5C 1472.88,1399.7 1452.21,1399.2 1431.5,1400C 1425.86,1400.86 1420.19,1401.53 1414.5,1402C 1408.51,1404.74 1402.18,1406.24 1395.5,1406.5C 1401.09,1403.53 1407.09,1401.53 1413.5,1400.5C 1431.76,1398.69 1450.09,1398.02 1468.5,1398.5 Z"/></g>
<g><path style="opacity:1" fill="#27231c" d="M 2584.5,1398.5 C 2571.5,1398.33 2558.5,1398.5 2545.5,1399C 2535.93,1400.71 2526.26,1401.71 2516.5,1402C 2504.54,1404.63 2492.54,1406.79 2480.5,1408.5C 2514.56,1398.56 2549.23,1395.23 2584.5,1398.5 Z"/></g>
<g><path style="opacity:1" fill="#342f25" d="M 2584.5,1398.5 C 2594.17,1399.2 2603.5,1401.37 2612.5,1405C 2617.42,1407.29 2622.09,1409.79 2626.5,1412.5C 2619.85,1410.76 2613.52,1408.26 2607.5,1405C 2601.02,1403.12 2594.36,1401.78 2587.5,1401C 2588.5,1400.67 2589.5,1400.33 2590.5,1400C 2588.29,1399.81 2586.29,1399.31 2584.5,1398.5 Z"/></g>
<g><path style="opacity:1" fill="#3a3328" d="M 1597.5,1412.5 C 1587.89,1410.9 1578.23,1409.73 1568.5,1409C 1555.98,1408.73 1543.65,1408.56 1531.5,1408.5C 1553.87,1405.21 1575.87,1406.55 1597.5,1412.5 Z"/></g>
<g><path style="opacity:1" fill="#6a5d48" d="M 2391.5,1410.5 C 2386.69,1409.51 2381.69,1409.18 2376.5,1409.5C 2383.99,1408.32 2391.66,1407.82 2399.5,1408C 2396.9,1409.14 2394.24,1409.97 2391.5,1410.5 Z"/></g>
<g><path style="opacity:1" fill="#363026" d="M 2478.5,1408.5 C 2464.02,1408.52 2449.35,1408.68 2434.5,1409C 2426.83,1410.37 2419.17,1411.53 2411.5,1412.5C 2420.51,1409.72 2429.84,1407.88 2439.5,1407C 2452.62,1406.01 2465.62,1406.51 2478.5,1408.5 Z"/></g>
<g><path style="opacity:1" fill="#0c0b08" d="M 1673.5,1419.5 C 1704.7,1429.06 1734.04,1442.56 1761.5,1460C 1782.17,1474.67 1802.83,1489.33 1823.5,1504C 1827,1507.5 1830.5,1511 1834,1514.5C 1836,1518.34 1837.5,1522.34 1838.5,1526.5C 1835.78,1525.65 1833.11,1524.48 1830.5,1523C 1826.47,1518.63 1822.13,1514.63 1817.5,1511C 1791.32,1491.82 1764.32,1473.82 1736.5,1457C 1726.5,1452.33 1716.5,1447.67 1706.5,1443C 1679.51,1433.06 1652.51,1423.23 1625.5,1413.5C 1624.3,1411.65 1624.97,1410.65 1627.5,1410.5C 1638.58,1412.11 1649.58,1413.94 1660.5,1416C 1664.34,1418.86 1668.68,1420.03 1673.5,1419.5 Z"/></g>
<g><path style="opacity:1" fill="#29241d" d="M 2376.5,1409.5 C 2381.69,1409.18 2386.69,1409.51 2391.5,1410.5C 2387.84,1411.83 2384.17,1413.17 2380.5,1414.5C 2380.59,1413.5 2380.25,1412.67 2379.5,1412C 2380.5,1411.67 2381.5,1411.33 2382.5,1411C 2380.83,1410.83 2379.17,1410.67 2377.5,1410.5C 2367.44,1412.4 2357.44,1414.07 2347.5,1415.5C 2356.72,1411.99 2366.38,1409.99 2376.5,1409.5 Z"/></g>
<g><path style="opacity:1" fill="#0c0a08" d="M 2380.5,1414.5 C 2354.35,1423.5 2328.35,1433 2302.5,1443C 2290.04,1448.73 2277.71,1454.73 2265.5,1461C 2233.25,1481.08 2202.25,1502.92 2172.5,1526.5C 2172.17,1525.83 2171.83,1525.17 2171.5,1524.5C 2173.66,1517.17 2177.66,1511 2183.5,1506C 2205.97,1488.93 2228.97,1472.6 2252.5,1457C 2282.24,1438.81 2313.91,1424.97 2347.5,1415.5C 2357.44,1414.07 2367.44,1412.4 2377.5,1410.5C 2379.17,1410.67 2380.83,1410.83 2382.5,1411C 2381.5,1411.33 2380.5,1411.67 2379.5,1412C 2380.25,1412.67 2380.59,1413.5 2380.5,1414.5 Z"/></g>
<g><path style="opacity:1" fill="#2a251d" d="M 1673.5,1419.5 C 1668.68,1420.03 1664.34,1418.86 1660.5,1416C 1649.58,1413.94 1638.58,1412.11 1627.5,1410.5C 1624.97,1410.65 1624.3,1411.65 1625.5,1413.5C 1621.48,1412.11 1617.48,1410.61 1613.5,1409C 1634.43,1407.94 1654.43,1411.44 1673.5,1419.5 Z"/></g>
<g><path style="opacity:1" fill="#1d1a15" d="M 1645.5,1424.5 C 1664.88,1430.62 1683.54,1438.29 1701.5,1447.5C 1699.8,1447.66 1698.13,1447.49 1696.5,1447C 1679.6,1438.88 1662.27,1431.88 1644.5,1426C 1645.06,1425.62 1645.39,1425.12 1645.5,1424.5 Z"/></g>
<g><path style="opacity:1" fill="#312b23" d="M 2368.5,1501.5 C 2360,1502.41 2351.33,1503.07 2342.5,1503.5C 2342.92,1502.78 2343.58,1502.28 2344.5,1502C 2352.49,1501.5 2360.49,1501.33 2368.5,1501.5 Z"/></g>
<g><path style="opacity:1" fill="#fefefe" d="M 1534.5,1649.5 C 1583.72,1648.09 1632.72,1650.59 1681.5,1657C 1696.6,1659.49 1711.6,1662.49 1726.5,1666C 1753.93,1674.26 1781.27,1682.92 1808.5,1692C 1822.21,1698.13 1836.21,1703.46 1850.5,1708C 1863.24,1713.54 1875.57,1719.87 1887.5,1727C 1891.92,1729.41 1895.75,1732.58 1899,1736.5C 1899.48,1737.45 1899.65,1738.45 1899.5,1739.5C 1901.12,1739.36 1902.29,1740.03 1903,1741.5C 1908.1,1756.81 1913.6,1771.98 1919.5,1787C 1923.89,1787.58 1928.22,1787.24 1932.5,1786C 1953.97,1773.84 1976.8,1766.34 2001,1763.5C 2014.19,1764.08 2027.35,1764.91 2040.5,1766C 2057.92,1770.7 2074.59,1777.36 2090.5,1786C 2094.78,1787.16 2099.11,1787.99 2103.5,1788.5C 2109.66,1771.69 2115.32,1755.02 2120.5,1738.5C 2125.26,1737.95 2129.26,1735.78 2132.5,1732C 2164.06,1713.72 2197.06,1698.39 2231.5,1686C 2250.84,1680 2270.18,1674 2289.5,1668C 2354.86,1651.71 2421.19,1645.71 2488.5,1650C 2500.23,1650.3 2511.89,1651.3 2523.5,1653C 2567.12,1661.59 2610.79,1669.92 2654.5,1678C 2672.11,1683.2 2689.44,1689.2 2706.5,1696C 2730.93,1701.81 2754.59,1709.81 2777.5,1720C 2799.11,1726.54 2820.44,1733.87 2841.5,1742C 2843.81,1742.5 2846.14,1742.66 2848.5,1742.5C 2846.59,1766.45 2843.59,1790.45 2839.5,1814.5C 2839.73,1816.67 2840.06,1818.84 2840.5,1821C 2839.42,1821.67 2838.75,1822.67 2838.5,1824C 2837.2,1830.81 2836.04,1837.65 2835,1844.5C 2832.41,1850.02 2830.07,1855.69 2828,1861.5C 2827.25,1862.13 2826.42,1862.63 2825.5,1863C 2826.05,1864.4 2826.38,1865.73 2826.5,1867C 2824.59,1870.11 2822.76,1873.28 2821,1876.5C 2812.86,1911.22 2802.53,1945.55 2790,1979.5C 2777.5,2000.37 2765.33,2021.54 2753.5,2043C 2740.95,2059.21 2726.62,2073.88 2710.5,2087C 2686.82,2111.83 2660.15,2132.83 2630.5,2150C 2610.58,2162.13 2589.58,2171.8 2567.5,2179C 2521.12,2186.79 2474.79,2189.79 2428.5,2188C 2405.87,2183.45 2383.2,2179.12 2360.5,2175C 2312.04,2159.74 2266.04,2139.07 2222.5,2113C 2204.09,2094.91 2188.26,2074.75 2175,2052.5C 2151.77,2016.37 2132.44,1978.04 2117,1937.5C 2108.74,1907.4 2103.9,1876.73 2102.5,1845.5C 2101.13,1845.66 2099.79,1845.49 2098.5,1845C 2081.52,1836.84 2064.85,1828.18 2048.5,1819C 2023.96,1808.03 1999.3,1807.7 1974.5,1818C 1957.71,1826.56 1941.04,1835.4 1924.5,1844.5C 1921.67,1864.76 1919.17,1885.09 1917,1905.5C 1914.95,1915.33 1912.28,1924.99 1909,1934.5C 1893.16,1968.31 1876.5,2001.64 1859,2034.5C 1848.92,2050.34 1838.58,2066 1828,2081.5C 1821,2089.83 1814,2098.17 1807,2106.5C 1804.5,2109 1802,2111.5 1799.5,2114C 1748.68,2145.41 1694.01,2167.41 1635.5,2180C 1619.75,2182.3 1604.08,2185.14 1588.5,2188.5C 1575.07,2187.21 1561.9,2187.21 1549,2188.5C 1540.71,2187.8 1532.38,2187.14 1524,2186.5C 1523.23,2186.64 1522.56,2186.98 1522,2187.5C 1513.06,2186.06 1504.06,2184.72 1495,2183.5C 1491.38,2184.39 1487.88,2184.06 1484.5,2182.5C 1483.71,2182.93 1482.87,2183.26 1482,2183.5C 1476.64,2182.42 1471.31,2181.42 1466,2180.5C 1465.59,2180.96 1465.09,2181.29 1464.5,2181.5C 1409.67,2165.42 1361.34,2137.92 1319.5,2099C 1309.33,2087.5 1298.5,2076.67 1287,2066.5C 1282,2060.5 1277,2054.5 1272,2048.5C 1260.41,2026.97 1248.08,2005.97 1235,1985.5C 1228.46,1971.32 1223.46,1956.65 1220,1941.5C 1212.85,1921.98 1207.19,1901.98 1203,1881.5C 1197.67,1868.18 1192.34,1854.84 1187,1841.5C 1181.43,1808.62 1176.93,1775.62 1173.5,1742.5C 1180.14,1741 1186.81,1739.5 1193.5,1738C 1219.45,1729.43 1245.12,1720.1 1270.5,1710C 1288.32,1704.05 1306.32,1698.71 1324.5,1694C 1339.28,1688.07 1354.28,1682.74 1369.5,1678C 1412.17,1670 1454.83,1662 1497.5,1654C 1509.92,1651.96 1522.25,1650.46 1534.5,1649.5 Z"/></g>
<g><path style="opacity:1" fill="#faddac" d="M 1857.5,1892.5 C 1848.55,1897.64 1839.55,1902.81 1830.5,1908C 1826.65,1910.76 1822.98,1913.76 1819.5,1917C 1828.06,1918.11 1836.39,1917.28 1844.5,1914.5C 1844.66,1916.2 1844.49,1917.87 1844,1919.5C 1842.23,1921.6 1840.9,1923.93 1840,1926.5C 1838.33,1932.58 1837.16,1938.74 1836.5,1945C 1837.82,1958.97 1838.82,1972.97 1839.5,1987C 1837.99,1989.86 1838.33,1992.52 1840.5,1995C 1840.01,2001.32 1839.51,2007.82 1839,2014.5C 1833.82,2027.86 1827.82,2040.86 1821,2053.5C 1809.84,2068.58 1797.34,2082.24 1783.5,2094.5C 1783.25,2095.77 1783.25,2096.94 1783.5,2098C 1738.86,2122.88 1691.86,2141.88 1642.5,2155C 1595.57,2158.73 1548.57,2160.06 1501.5,2159C 1462.23,2149.24 1424.23,2135.91 1387.5,2119C 1370.26,2107.54 1353.93,2094.88 1338.5,2081C 1321.59,2063.43 1305.42,2045.26 1290,2026.5C 1277.91,2008 1266.58,1989 1256,1969.5C 1252.24,1958.7 1249.07,1947.7 1246.5,1936.5C 1242.55,1918.64 1237.38,1900.97 1231,1883.5C 1227.09,1858.92 1222.92,1834.58 1218.5,1810.5C 1218.38,1805.41 1220.38,1801.41 1224.5,1798.5C 1226.98,1788.25 1232.31,1779.75 1240.5,1773C 1244.83,1770 1249.17,1767 1253.5,1764C 1258.59,1761.96 1263.59,1759.62 1268.5,1757C 1274.66,1752.42 1280.99,1748.09 1287.5,1744C 1302.9,1735.97 1318.23,1727.97 1333.5,1720C 1351.02,1714.38 1368.36,1708.38 1385.5,1702C 1410.45,1695.93 1435.12,1688.93 1459.5,1681C 1475.74,1676.91 1492.24,1674.41 1509,1673.5C 1525.86,1674.46 1542.86,1674.79 1560,1674.5C 1563.64,1672.99 1567.47,1672.32 1571.5,1672.5C 1619.8,1675.11 1666.8,1683.61 1712.5,1698C 1745.39,1704.49 1776.05,1715.82 1804.5,1732C 1822.28,1744.95 1839.61,1758.45 1856.5,1772.5C 1858.52,1781.12 1860.36,1789.79 1862,1798.5C 1865.12,1825.42 1866.45,1852.42 1866,1879.5C 1863.45,1882.36 1861.78,1885.69 1861,1889.5C 1860.24,1891.06 1859.07,1892.06 1857.5,1892.5 Z"/></g>
<g><path style="opacity:1" fill="#faddac" d="M 2178.5,1917.5 C 2182.51,1917.67 2186.51,1917.5 2190.5,1917C 2187.67,1915 2185,1912.83 2182.5,1910.5C 2179.43,1908.1 2176.1,1906.1 2172.5,1904.5C 2157.64,1889.07 2152.14,1870.74 2156,1849.5C 2156.74,1836.15 2157.74,1822.81 2159,1809.5C 2159.95,1796.94 2162.11,1784.61 2165.5,1772.5C 2172.85,1768.66 2179.18,1763.49 2184.5,1757C 2199.61,1745.1 2214.94,1734.43 2230.5,1725C 2246.31,1717.72 2262.31,1711.06 2278.5,1705C 2306.52,1699.29 2334.02,1692.12 2361,1683.5C 2361.41,1683.96 2361.91,1684.29 2362.5,1684.5C 2384.49,1680.83 2406.49,1677.17 2428.5,1673.5C 2442.63,1673.68 2456.96,1673.68 2471.5,1673.5C 2473.71,1674.11 2475.88,1674.77 2478,1675.5C 2515.88,1670.96 2553.05,1675.8 2589.5,1690C 2624.92,1698.25 2659.59,1708.92 2693.5,1722C 2705.76,1729.63 2718.43,1736.3 2731.5,1742C 2738.82,1747 2746.16,1752 2753.5,1757C 2762.25,1760.88 2770.59,1765.54 2778.5,1771C 2783.64,1774.81 2788.14,1779.31 2792,1784.5C 2795.36,1788.55 2797.02,1793.22 2797,1798.5C 2799.67,1799.83 2801.67,1801.83 2803,1804.5C 2803.67,1808.83 2803.67,1813.17 2803,1817.5C 2801.57,1822.48 2800.24,1827.48 2799,1832.5C 2798.13,1852.41 2794.46,1871.74 2788,1890.5C 2788.19,1895.35 2786.86,1899.69 2784,1903.5C 2781.76,1914.14 2778.76,1924.47 2775,1934.5C 2772.87,1946.28 2770.2,1957.95 2767,1969.5C 2764.47,1976.89 2761.14,1983.89 2757,1990.5C 2747.75,2004.66 2738.75,2019 2730,2033.5C 2708.08,2061.09 2683.24,2085.59 2655.5,2107C 2632.12,2123.85 2606.45,2136.19 2578.5,2144C 2559.83,2149.33 2541.17,2154.67 2522.5,2160C 2477.05,2161.5 2431.72,2159.83 2386.5,2155C 2337.78,2142.1 2291.11,2124.1 2246.5,2101C 2241.77,2098.6 2237.6,2095.43 2234,2091.5C 2225.95,2082.12 2217.62,2073.12 2209,2064.5C 2208.52,2063.55 2208.35,2062.55 2208.5,2061.5C 2207.5,2061.5 2206.5,2061.5 2205.5,2061.5C 2196.71,2046.25 2189.21,2030.25 2183,2013.5C 2182.36,1996.67 2183.03,1979.67 2185,1962.5C 2187.42,1946.63 2185.25,1931.63 2178.5,1917.5 Z"/></g>
<g><path style="opacity:1" fill="#b8a27e" d="M 3014.5,1723.5 C 3022.39,1724.67 3029.39,1726.51 3035.5,1729C 3037.4,1731.07 3039.4,1732.9 3041.5,1734.5C 3039.91,1733.59 3038.41,1733.59 3037,1734.5C 3032.05,1729.38 3025.39,1726.38 3017,1725.5C 3015.62,1725.32 3014.79,1724.65 3014.5,1723.5 Z"/></g>
<g><path style="opacity:1" fill="#fdfdfd" d="M 1041.5,1743.5 C 1064.5,1743.5 1087.5,1743.5 1110.5,1743.5C 1124.18,1744.72 1137.85,1744.72 1151.5,1743.5C 1152,1750.49 1152.5,1757.49 1153,1764.5C 1155.61,1779.12 1157.77,1793.79 1159.5,1808.5C 1142.56,1804.74 1126.23,1799.41 1110.5,1792.5C 1093.59,1786.76 1076.26,1781.43 1058.5,1776.5C 1057.47,1775.75 1056.3,1775.08 1055,1774.5C 1049.97,1765.43 1045.3,1756.09 1041,1746.5C 1040.26,1745.25 1040.43,1744.25 1041.5,1743.5 Z"/></g>
<g><path style="opacity:1" fill="#fdfdfd" d="M 2904.5,1743.5 C 2929.98,1743.58 2955.32,1743.58 2980.5,1743.5C 2981.24,1743.37 2981.91,1743.54 2982.5,1744C 2977.56,1754.79 2972.23,1765.46 2966.5,1776C 2964.29,1776.19 2962.29,1776.69 2960.5,1777.5C 2941.8,1783.34 2923.14,1789.17 2904.5,1795C 2903.02,1795.66 2901.68,1796.5 2900.5,1797.5C 2887.92,1801.68 2875.25,1805.34 2862.5,1808.5C 2866.15,1787.28 2869.15,1765.94 2871.5,1744.5C 2882.68,1744.83 2893.68,1744.49 2904.5,1743.5 Z"/></g>
<g><path style="opacity:1" fill="#030302" d="M 1058.5,1776.5 C 1076.26,1781.43 1093.59,1786.76 1110.5,1792.5C 1110.5,1815.5 1110.5,1838.5 1110.5,1861.5C 1110.81,1865.04 1110.48,1868.38 1109.5,1871.5C 1107.77,1869.91 1106.6,1867.91 1106,1865.5C 1105.1,1864.3 1103.93,1863.47 1102.5,1863C 1103.45,1862.28 1103.62,1861.45 1103,1860.5C 1100.65,1856.63 1098.15,1852.97 1095.5,1849.5C 1093.5,1845.84 1091.5,1842.17 1089.5,1838.5C 1089.17,1837.83 1088.83,1837.17 1088.5,1836.5C 1085.16,1830.76 1081.82,1825.09 1078.5,1819.5C 1072.27,1805.15 1065.27,1791.15 1057.5,1777.5C 1057.62,1776.89 1057.96,1776.56 1058.5,1776.5 Z"/></g>
<g><path style="opacity:1" fill="#030302" d="M 2960.5,1777.5 C 2961.24,1777.37 2961.91,1777.54 2962.5,1778C 2959.14,1785.21 2955.64,1792.38 2952,1799.5C 2934.69,1828.47 2918.19,1857.8 2902.5,1887.5C 2901.03,1886.62 2900.2,1885.29 2900,1883.5C 2899.2,1854.81 2899.37,1826.14 2900.5,1797.5C 2901.68,1796.5 2903.02,1795.66 2904.5,1795C 2923.14,1789.17 2941.8,1783.34 2960.5,1777.5 Z"/></g>
<g><path style="opacity:1" fill="#645844" d="M 2487.5,1811.5 C 2463.82,1811.29 2440.15,1811.62 2416.5,1812.5C 2414.17,1812.5 2411.83,1812.5 2409.5,1812.5C 2425.14,1811.02 2440.97,1810.35 2457,1810.5C 2467.34,1810.5 2477.51,1810.83 2487.5,1811.5 Z"/></g>
<g><path style="opacity:1" fill="#040302" d="M 1613.5,1814.5 C 1614.17,1814.5 1614.83,1814.5 1615.5,1814.5C 1615.92,1815.22 1616.58,1815.72 1617.5,1816C 1622.82,1816.5 1628.16,1816.67 1633.5,1816.5C 1656.95,1819.45 1679.95,1824.45 1702.5,1831.5C 1701.05,1832.82 1701.38,1833.66 1703.5,1834C 1711.5,1836.33 1719.5,1838.67 1727.5,1841C 1740.73,1846.45 1754.06,1851.62 1767.5,1856.5C 1781.19,1862.26 1793.02,1870.59 1803,1881.5C 1803.43,1882.6 1802.93,1883.27 1801.5,1883.5C 1755.57,1860.58 1707.23,1844.74 1656.5,1836C 1586.24,1831.11 1517.24,1838.11 1449.5,1857C 1419.57,1867.53 1389.57,1877.86 1359.5,1888C 1349.95,1892.61 1340.28,1896.94 1330.5,1901C 1324.95,1903.23 1319.28,1903.73 1313.5,1902.5C 1320.31,1892.91 1326.48,1882.91 1332,1872.5C 1333.97,1868.8 1334.97,1864.8 1335,1860.5C 1338.13,1854.2 1342.97,1849.86 1349.5,1847.5C 1361.55,1845.26 1372.88,1841.26 1383.5,1835.5C 1387.8,1833.25 1392.47,1831.92 1397.5,1831.5C 1407.26,1829.24 1417.26,1827.74 1427.5,1827C 1434.14,1824.51 1440.8,1822.35 1447.5,1820.5C 1461.05,1819.13 1474.38,1817.13 1487.5,1814.5C 1487.83,1814.5 1488.17,1814.5 1488.5,1814.5C 1530.16,1811.85 1571.83,1811.85 1613.5,1814.5 Z"/></g>
<g><path style="opacity:1" fill="#050403" d="M 2487.5,1811.5 C 2516.79,1813.1 2545.79,1816.77 2574.5,1822.5C 2583.88,1826.85 2593.88,1829.19 2604.5,1829.5C 2607.37,1829.8 2610.04,1830.47 2612.5,1831.5C 2612.61,1832.12 2612.94,1832.62 2613.5,1833C 2622.19,1835.17 2630.85,1837.34 2639.5,1839.5C 2644.06,1843.01 2649.4,1845.01 2655.5,1845.5C 2661.45,1847.48 2667.12,1849.98 2672.5,1853C 2674.77,1855.03 2676.94,1857.19 2679,1859.5C 2684.98,1872.14 2691.98,1884.14 2700,1895.5C 2701.12,1897.77 2701.95,1900.1 2702.5,1902.5C 2697.38,1902.47 2692.38,1901.64 2687.5,1900C 2677.72,1895.94 2668.05,1891.61 2658.5,1887C 2625.6,1875.72 2592.6,1864.72 2559.5,1854C 2520.85,1843.48 2481.52,1837.15 2441.5,1835C 2413.17,1834.33 2384.83,1834.33 2356.5,1835C 2304.41,1843.37 2254.91,1859.53 2208,1883.5C 2207.5,1883.17 2207,1882.83 2206.5,1882.5C 2209.27,1878.22 2212.61,1874.39 2216.5,1871C 2250.22,1850.03 2286.55,1835.2 2325.5,1826.5C 2343.65,1823.07 2361.65,1819.4 2379.5,1815.5C 2379.83,1815.5 2380.17,1815.5 2380.5,1815.5C 2392.77,1815.89 2404.77,1814.89 2416.5,1812.5C 2440.15,1811.62 2463.82,1811.29 2487.5,1811.5 Z"/></g>
<g><path style="opacity:1" fill="#393227" d="M 1613.5,1814.5 C 1571.83,1811.85 1530.16,1811.85 1488.5,1814.5C 1530.16,1809.27 1571.83,1809.27 1613.5,1814.5 Z"/></g>
<g><path style="opacity:1" fill="#2e2920" d="M 2409.5,1812.5 C 2411.83,1812.5 2414.17,1812.5 2416.5,1812.5C 2404.77,1814.89 2392.77,1815.89 2380.5,1815.5C 2389.93,1813.57 2399.59,1812.57 2409.5,1812.5 Z"/></g>
<g><path style="opacity:1" fill="#2e2921" d="M 1615.5,1814.5 C 1620.18,1814.33 1624.85,1814.5 1629.5,1815C 1631.06,1815.21 1632.39,1815.71 1633.5,1816.5C 1628.16,1816.67 1622.82,1816.5 1617.5,1816C 1616.58,1815.72 1615.92,1815.22 1615.5,1814.5 Z"/></g>
<g><path style="opacity:1" fill="#4f4636" d="M 1487.5,1814.5 C 1474.38,1817.13 1461.05,1819.13 1447.5,1820.5C 1460.55,1817.49 1473.88,1815.49 1487.5,1814.5 Z"/></g>
<g><path style="opacity:1" fill="#2a261e" d="M 2379.5,1815.5 C 2361.65,1819.4 2343.65,1823.07 2325.5,1826.5C 2342.97,1820.81 2360.97,1817.14 2379.5,1815.5 Z"/></g>
<g><path style="opacity:1" fill="#060504" d="M 934.5,1896.5 C 932.824,1895.82 932.157,1894.48 932.5,1892.5C 935.939,1871 943.772,1851.34 956,1833.5C 958.869,1830.3 962.035,1827.46 965.5,1825C 975.266,1825.42 984.932,1826.75 994.5,1829C 1003,1833.5 1009.5,1840 1014,1848.5C 1023.91,1869.78 1028.24,1892.12 1027,1915.5C 1023.89,1944.16 1015.56,1971.16 1002,1996.5C 995.727,2015.34 996.394,2034.01 1004,2052.5C 1009.41,2063 1015.58,2073 1022.5,2082.5C 1025.36,2091.81 1022.03,2095.64 1012.5,2094C 995.545,2075.91 985.711,2054.41 983,2029.5C 982.205,2019.46 982.538,2009.46 984,1999.5C 990.049,1982.4 996.382,1965.4 1003,1948.5C 1008.99,1931.25 1011.32,1913.58 1010,1895.5C 1006.08,1883.2 1001.41,1871.2 996,1859.5C 989.534,1850.03 980.7,1844.86 969.5,1844C 954.97,1859.55 943.304,1877.05 934.5,1896.5 Z"/></g>
<g><path style="opacity:1" fill="#2e2920" d="M 1447.5,1820.5 C 1440.8,1822.35 1434.14,1824.51 1427.5,1827C 1417.26,1827.74 1407.26,1829.24 1397.5,1831.5C 1413.77,1826.58 1430.44,1822.91 1447.5,1820.5 Z"/></g>
<g><path style="opacity:1" fill="#312b22" d="M 2574.5,1822.5 C 2584.79,1824.09 2594.79,1826.42 2604.5,1829.5C 2593.88,1829.19 2583.88,1826.85 2574.5,1822.5 Z"/></g>
<g><path style="opacity:1" fill="#070604" d="M 3078.5,1897.5 C 3078.5,1898.83 3077.83,1899.5 3076.5,1899.5C 3067.76,1881.68 3057.26,1865.01 3045,1849.5C 3042.04,1844.77 3037.88,1842.94 3032.5,1844C 3021.73,1848.44 3013.89,1855.94 3009,1866.5C 3006.28,1875.6 3003.28,1884.6 3000,1893.5C 2999.37,1910.47 3001.37,1927.14 3006,1943.5C 3012.74,1962.64 3019.74,1981.64 3027,2000.5C 3031.47,2037.43 3020.64,2068.93 2994.5,2095C 2987.3,2095.13 2984.47,2091.63 2986,2084.5C 2992.73,2074.77 2999.06,2064.77 3005,2054.5C 3011.46,2038.66 3013.13,2022.32 3010,2005.5C 3002.08,1987.39 2994.74,1969.06 2988,1950.5C 2983.65,1932.4 2981.65,1914.07 2982,1895.5C 2985.08,1877.26 2990.75,1859.92 2999,1843.5C 3004.35,1836.81 3010.85,1831.64 3018.5,1828C 3025.51,1827.77 3032.34,1826.94 3039,1825.5C 3042.54,1825.17 3045.7,1826.01 3048.5,1828C 3060.33,1839.48 3068.16,1853.31 3072,1869.5C 3074.8,1878.7 3076.97,1888.03 3078.5,1897.5 Z"/></g>
<g><path style="opacity:1" fill="#bfa983" d="M 1078.5,1819.5 C 1081.82,1825.09 1085.16,1830.76 1088.5,1836.5C 1087.27,1836.28 1086.27,1835.61 1085.5,1834.5C 1083.1,1831.28 1080.93,1827.94 1079,1824.5C 1078.51,1822.87 1078.34,1821.2 1078.5,1819.5 Z"/></g>
<g><path style="opacity:1" fill="#413a2d" d="M 2612.5,1831.5 C 2621.84,1833.39 2630.84,1836.06 2639.5,1839.5C 2630.85,1837.34 2622.19,1835.17 2613.5,1833C 2612.94,1832.62 2612.61,1832.12 2612.5,1831.5 Z"/></g>
<g><path style="opacity:1" fill="#1c1915" d="M 1702.5,1831.5 C 1724.93,1838.08 1746.59,1846.42 1767.5,1856.5C 1754.06,1851.62 1740.73,1846.45 1727.5,1841C 1719.5,1838.67 1711.5,1836.33 1703.5,1834C 1701.38,1833.66 1701.05,1832.82 1702.5,1831.5 Z"/></g>
<g><path style="opacity:1" fill="#29241d" d="M 1383.5,1835.5 C 1372.88,1841.26 1361.55,1845.26 1349.5,1847.5C 1360.12,1841.74 1371.45,1837.74 1383.5,1835.5 Z"/></g>
<g><path style="opacity:1" fill="#302a21" d="M 2639.5,1839.5 C 2645.32,1840.55 2650.65,1842.55 2655.5,1845.5C 2649.4,1845.01 2644.06,1843.01 2639.5,1839.5 Z"/></g>
<g><path style="opacity:1" fill="#b29e7a" d="M 1089.5,1838.5 C 1091.5,1842.17 1093.5,1845.84 1095.5,1849.5C 1091.69,1846.89 1089.69,1843.22 1089.5,1838.5 Z"/></g>
<g><path style="opacity:1" fill="#5d5240" d="M 1110.5,1861.5 C 1111.65,1865.31 1111.81,1869.31 1111,1873.5C 1110.28,1872.96 1109.78,1872.29 1109.5,1871.5C 1110.48,1868.38 1110.81,1865.04 1110.5,1861.5 Z"/></g>
<g><path style="opacity:1" fill="#40392c" d="M 932.5,1892.5 C 932.157,1894.48 932.824,1895.82 934.5,1896.5C 932.486,1899.19 930.986,1902.19 930,1905.5C 929.742,1900.88 930.576,1896.55 932.5,1892.5 Z"/></g>
<g><path style="opacity:1" fill="#141210" d="M 1857.5,1892.5 C 1853.95,1900.36 1849.61,1907.7 1844.5,1914.5C 1836.39,1917.28 1828.06,1918.11 1819.5,1917C 1822.98,1913.76 1826.65,1910.76 1830.5,1908C 1839.55,1902.81 1848.55,1897.64 1857.5,1892.5 Z"/></g>
<g><path style="opacity:1" fill="#6b5f49" d="M 3078.5,1897.5 C 3079.82,1900.28 3080.32,1903.28 3080,1906.5C 3078.82,1904.14 3077.65,1901.81 3076.5,1899.5C 3077.83,1899.5 3078.5,1898.83 3078.5,1897.5 Z"/></g>
<g><path style="opacity:1" fill="#151311" d="M 2172.5,1904.5 C 2176.1,1906.1 2179.43,1908.1 2182.5,1910.5C 2182.72,1912.61 2183.72,1914.27 2185.5,1915.5C 2184.5,1915.83 2183.5,1916.17 2182.5,1916.5C 2180.46,1915.8 2178.46,1915.13 2176.5,1914.5C 2174.62,1911.41 2173.29,1908.08 2172.5,1904.5 Z"/></g>
<g><path style="opacity:1" fill="#3d372c" d="M 2182.5,1910.5 C 2185,1912.83 2187.67,1915 2190.5,1917C 2186.51,1917.5 2182.51,1917.67 2178.5,1917.5C 2177.83,1916.5 2177.17,1915.5 2176.5,1914.5C 2178.46,1915.13 2180.46,1915.8 2182.5,1916.5C 2183.5,1916.17 2184.5,1915.83 2185.5,1915.5C 2183.72,1914.27 2182.72,1912.61 2182.5,1910.5 Z"/></g>
<g><path style="opacity:1" fill="#0b0907" d="M 959.5,2121.5 C 967.308,2134.44 975.141,2147.44 983,2160.5C 987.089,2166.59 991.922,2172.09 997.5,2177C 1008.03,2184.04 1019.7,2187.04 1032.5,2186C 1038.1,2187.37 1038.93,2190.21 1035,2194.5C 1033.95,2196.09 1032.79,2197.59 1031.5,2199C 1013.25,2207.55 997.414,2204.39 984,2189.5C 977.369,2180.57 972.036,2170.91 968,2160.5C 964.373,2147.66 961.54,2134.66 959.5,2121.5 Z"/></g>
<g><path style="opacity:1" fill="#080705" d="M 2978.5,2186.5 C 2984.51,2186.67 2990.51,2186.5 2996.5,2186C 2999.19,2185.84 3001.52,2185.01 3003.5,2183.5C 3011.85,2178.89 3018.68,2172.56 3024,2164.5C 3033.34,2151.16 3041.67,2137.16 3049,2122.5C 3047.55,2149.85 3037.72,2173.68 3019.5,2194C 3007.08,2204.22 2993.41,2206.22 2978.5,2200C 2974.92,2196.88 2973.08,2193.05 2973,2188.5C 2974.73,2187.54 2976.56,2186.87 2978.5,2186.5 Z"/></g>
<g><path style="opacity:1" fill="#f3d6a6" d="M 1995.5,2164.5 C 2001.34,2164.62 2007.18,2164.62 2013,2164.5C 2014.33,2165.17 2015.67,2165.83 2017,2166.5C 2033.49,2165.55 2050.16,2166.21 2067,2168.5C 2069.33,2168.17 2071.67,2167.83 2074,2167.5C 2078.34,2169.25 2082.5,2169.58 2086.5,2168.5C 2120.18,2171.17 2152.52,2179.17 2183.5,2192.5C 2168.06,2206.77 2152.72,2221.27 2137.5,2236C 2133.23,2239.29 2128.73,2242.12 2124,2244.5C 2093.58,2256.97 2062.75,2267.14 2031.5,2275C 2022.88,2276.52 2014.71,2275.35 2007,2271.5C 1990.52,2275.14 1974.86,2273.8 1960,2267.5C 1934.6,2261.24 1909.77,2252.07 1885.5,2240C 1867.46,2224.29 1849.79,2208.29 1832.5,2192C 1855.07,2183.85 1878.07,2177.02 1901.5,2171.5C 1902.44,2171.61 1903.28,2171.94 1904,2172.5C 1911.35,2171.23 1918.68,2169.9 1926,2168.5C 1935.78,2168.18 1945.62,2168.18 1955.5,2168.5C 1968.94,2166.94 1982.27,2165.61 1995.5,2164.5 Z"/></g>
<g><path style="opacity:1" fill="#393328" d="M 3003.5,2183.5 C 3001.52,2185.01 2999.19,2185.84 2996.5,2186C 2990.51,2186.5 2984.51,2186.67 2978.5,2186.5C 2986.72,2185.72 2995.05,2184.72 3003.5,2183.5 Z"/></g>
<g><path style="opacity:1" fill="#0b0907" d="M 1909.5,2193.5 C 1919.62,2193.01 1929.62,2193.84 1939.5,2196C 1941.5,2197 1943.5,2198 1945.5,2199C 1948.97,2202.47 1952.47,2205.97 1956,2209.5C 1956.82,2212.55 1956.65,2215.55 1955.5,2218.5C 1953.06,2220.39 1950.39,2221.72 1947.5,2222.5C 1941.39,2220.22 1935.39,2217.72 1929.5,2215C 1913.6,2211.9 1897.6,2209.56 1881.5,2208C 1890.21,2201.81 1899.55,2196.98 1909.5,2193.5 Z"/></g>
<g><path style="opacity:1" fill="#080705" d="M 2078.5,2194.5 C 2089.11,2193.83 2099.44,2194.83 2109.5,2197.5C 2115.61,2200.05 2121.27,2203.39 2126.5,2207.5C 2112.55,2209.88 2098.55,2212.04 2084.5,2214C 2076.93,2216.71 2069.43,2219.54 2062,2222.5C 2054.85,2221 2052.18,2216.67 2054,2209.5C 2060.26,2201.42 2068.42,2196.42 2078.5,2194.5 Z"/></g>
<g><path style="opacity:1" fill="#3b3429" d="M 2109.5,2197.5 C 2099.44,2194.83 2089.11,2193.83 2078.5,2194.5C 2089.18,2191.47 2099.52,2192.47 2109.5,2197.5 Z"/></g>
<g><path style="opacity:1" fill="#060504" d="M 1829.5,2541.5 C 1829.62,2542.59 1830.29,2543.25 1831.5,2543.5C 1834.94,2544.19 1838.27,2545.19 1841.5,2546.5C 1844.43,2547.48 1847.43,2547.82 1850.5,2547.5C 1857.24,2550.92 1864.57,2552.59 1872.5,2552.5C 1873.5,2552.5 1874.5,2552.5 1875.5,2552.5C 1877.48,2554.1 1879.81,2555.27 1882.5,2556C 1894.33,2558.15 1906.33,2559.65 1918.5,2560.5C 1925.27,2561.07 1931.93,2562.07 1938.5,2563.5C 1947.41,2565.71 1956.41,2567.88 1965.5,2570C 1973.82,2571.02 1982.16,2571.85 1990.5,2572.5C 1992.17,2572.5 1993.83,2572.5 1995.5,2572.5C 1998.02,2573.97 2000.85,2574.64 2004,2574.5C 2006.03,2574.49 2007.87,2574.16 2009.5,2573.5C 2013.43,2572.45 2017.43,2571.78 2021.5,2571.5C 2025.85,2571.67 2030.18,2571.5 2034.5,2571C 2044.39,2569.38 2054.06,2567.21 2063.5,2564.5C 2064.17,2564.5 2064.83,2564.5 2065.5,2564.5C 2070.41,2564.64 2075.08,2563.97 2079.5,2562.5C 2083.32,2561.52 2087.32,2560.85 2091.5,2560.5C 2103.52,2559.79 2115.19,2557.79 2126.5,2554.5C 2153.93,2549.81 2180.6,2542.31 2206.5,2532C 2251.73,2508.56 2294.39,2481.39 2334.5,2450.5C 2336.86,2450.33 2339.19,2449.99 2341.5,2449.5C 2340.17,2453.17 2338.83,2456.83 2337.5,2460.5C 2331.45,2469.06 2324.45,2476.89 2316.5,2484C 2280.95,2511.95 2242.61,2535.62 2201.5,2555C 2144.17,2574.78 2085.17,2583.94 2024.5,2582.5C 2018.73,2581.05 2012.73,2580.38 2006.5,2580.5C 2002.65,2580.5 1998.98,2580.83 1995.5,2581.5C 1930.61,2585.25 1867.61,2576.09 1806.5,2554C 1768.2,2535.53 1732.2,2513.53 1698.5,2488C 1685.85,2477.69 1675.02,2465.86 1666,2452.5C 1664.87,2450.65 1664.37,2448.65 1664.5,2446.5C 1668.15,2447.65 1671.81,2448.82 1675.5,2450C 1716.17,2481.35 1759.5,2508.68 1805.5,2532C 1813.49,2535.48 1821.49,2538.65 1829.5,2541.5 Z"/></g>
<g><path style="opacity:1" fill="#383227" d="M 2337.5,2460.5 C 2338.83,2456.83 2340.17,2453.17 2341.5,2449.5C 2339.19,2449.99 2336.86,2450.33 2334.5,2450.5C 2337.8,2448.36 2341.47,2447.02 2345.5,2446.5C 2343.86,2451.78 2341.19,2456.45 2337.5,2460.5 Z"/></g>
<g><path style="opacity:1" fill="#2f2a21" d="M 1829.5,2541.5 C 1836.73,2543.05 1843.73,2545.05 1850.5,2547.5C 1847.43,2547.82 1844.43,2547.48 1841.5,2546.5C 1838.27,2545.19 1834.94,2544.19 1831.5,2543.5C 1830.29,2543.25 1829.62,2542.59 1829.5,2541.5 Z"/></g>
<g><path style="opacity:1" fill="#302a21" d="M 1850.5,2547.5 C 1858.02,2548.88 1865.35,2550.55 1872.5,2552.5C 1864.57,2552.59 1857.24,2550.92 1850.5,2547.5 Z"/></g>
<g><path style="opacity:1" fill="#3c3529" d="M 1875.5,2552.5 C 1890.06,2554.87 1904.39,2557.53 1918.5,2560.5C 1906.33,2559.65 1894.33,2558.15 1882.5,2556C 1879.81,2555.27 1877.48,2554.1 1875.5,2552.5 Z"/></g>
<g><path style="opacity:1" fill="#4b4334" d="M 2126.5,2554.5 C 2115.19,2557.79 2103.52,2559.79 2091.5,2560.5C 2102.95,2558.01 2114.62,2556.01 2126.5,2554.5 Z"/></g>
<g><path style="opacity:1" fill="#4d4435" d="M 2079.5,2562.5 C 2075.08,2563.97 2070.41,2564.64 2065.5,2564.5C 2069.92,2563.03 2074.59,2562.36 2079.5,2562.5 Z"/></g>
<g><path style="opacity:1" fill="#484032" d="M 2063.5,2564.5 C 2054.06,2567.21 2044.39,2569.38 2034.5,2571C 2030.18,2571.5 2025.85,2571.67 2021.5,2571.5C 2035.29,2568.68 2049.29,2566.35 2063.5,2564.5 Z"/></g>
<g><path style="opacity:1" fill="#312c22" d="M 1938.5,2563.5 C 1956.14,2565.64 1973.47,2568.64 1990.5,2572.5C 1982.16,2571.85 1973.82,2571.02 1965.5,2570C 1956.41,2567.88 1947.41,2565.71 1938.5,2563.5 Z"/></g>
<g><path style="opacity:1" fill="#786a52" d="M 1995.5,2572.5 C 2000.13,2573.23 2004.8,2573.56 2009.5,2573.5C 2007.87,2574.16 2006.03,2574.49 2004,2574.5C 2000.85,2574.64 1998.02,2573.97 1995.5,2572.5 Z"/></g>
<g><path style="opacity:1" fill="#383227" d="M 1995.5,2581.5 C 1998.98,2580.83 2002.65,2580.5 2006.5,2580.5C 2012.73,2580.38 2018.73,2581.05 2024.5,2582.5C 2014.85,2581.75 2005.19,2581.42 1995.5,2581.5 Z"/></g>
<g><path style="opacity:1" fill="#0b0a07" d="M 2128.5,2665.5 C 2130.53,2665.34 2132.53,2665.5 2134.5,2666C 2123.91,2671.98 2112.57,2675.98 2100.5,2678C 2063.45,2685.29 2026.12,2687.62 1988.5,2685C 1982.72,2684.14 1977.06,2682.81 1971.5,2681C 1969.02,2679.69 1967.02,2677.86 1965.5,2675.5C 1966.38,2674.03 1967.71,2673.2 1969.5,2673C 1978.87,2672.22 1988.21,2672.56 1997.5,2674C 2013.5,2674.67 2029.5,2674.67 2045.5,2674C 2073.3,2670.96 2100.97,2668.12 2128.5,2665.5 Z"/></g>
<g><path style="opacity:1" fill="#e3c89a" d="M 2349.5,2951.5 C 2349.5,2951.83 2349.5,2952.17 2349.5,2952.5C 2348.39,2952.56 2347.39,2952.89 2346.5,2953.5C 2345.42,2953.54 2344.42,2953.87 2343.5,2954.5C 2342.5,2980.49 2342.17,3006.49 2342.5,3032.5C 2342.5,3032.83 2342.5,3033.17 2342.5,3033.5C 2342.5,3033.83 2342.5,3034.17 2342.5,3034.5C 2308.91,3050.64 2274.24,3062.8 2238.5,3071C 2224.98,3075.51 2211.48,3080.01 2198,3084.5C 2197.05,3084.91 2196.39,3085.57 2196,3086.5C 2192.12,3085.22 2188.45,3086.22 2185,3089.5C 2184.67,3089.17 2184.33,3088.83 2184,3088.5C 2160.35,3096.14 2136.18,3103.3 2111.5,3110C 2079.42,3117.52 2046.92,3121.69 2014,3122.5C 1991.53,3121.89 1969.03,3120.72 1946.5,3119C 1942.91,3118.96 1939.58,3118.13 1936.5,3116.5C 1932.71,3116.94 1929.04,3116.94 1925.5,3116.5C 1871.5,3102.51 1818.17,3086.67 1765.5,3069C 1751.64,3065.83 1737.98,3062.17 1724.5,3058C 1723.87,3057.25 1723.37,3056.42 1723,3055.5C 1722.28,3056.06 1721.44,3056.39 1720.5,3056.5C 1713.65,3055.03 1706.99,3052.36 1700.5,3048.5C 1699.83,3048.83 1699.17,3049.17 1698.5,3049.5C 1691.29,3045.59 1683.96,3041.75 1676.5,3038C 1672.89,3036.53 1669.22,3035.37 1665.5,3034.5C 1665.5,3034.17 1665.5,3033.83 1665.5,3033.5C 1665.43,3015.95 1665.43,2998.28 1665.5,2980.5C 1665.83,2971.81 1665.5,2963.14 1664.5,2954.5C 1663.82,2954.14 1663.15,2953.8 1662.5,2953.5C 1661.83,2953.5 1661.17,2953.5 1660.5,2953.5C 1659.83,2952.83 1659.17,2952.17 1658.5,2951.5C 1661.23,2950.01 1664.23,2949.34 1667.5,2949.5C 1673.88,2950.01 1680.21,2950.84 1686.5,2952C 1758.16,2967.72 1830.16,2981.72 1902.5,2994C 1936.63,2997.35 1970.79,3000.18 2005,3002.5C 2016.74,2999.81 2028.57,2999.15 2040.5,3000.5C 2067.14,2998 2093.81,2995.84 2120.5,2994C 2191.86,2982.16 2262.86,2968.5 2333.5,2953C 2338.79,2952.02 2344.13,2951.52 2349.5,2951.5 Z"/></g>
<g><path style="opacity:1" fill="#779195" d="M 2346.5,2953.5 C 2345.85,2962.24 2345.85,2970.91 2346.5,2979.5C 2343.89,2982.96 2343.89,2986.46 2346.5,2990C 2345.76,2997.31 2345.09,3004.65 2344.5,3012C 2345.88,3016.77 2345.55,3021.44 2343.5,3026C 2343.96,3027.3 2344.29,3028.63 2344.5,3030C 2344.32,3031.38 2343.65,3032.21 2342.5,3032.5C 2342.17,3006.49 2342.5,2980.49 2343.5,2954.5C 2344.42,2953.87 2345.42,2953.54 2346.5,2953.5 Z"/></g>
<g><path style="opacity:1" fill="#789195" d="M 1662.5,2953.5 C 1663.15,2953.8 1663.82,2954.14 1664.5,2954.5C 1665.5,2963.14 1665.83,2971.81 1665.5,2980.5C 1663.68,2976.88 1663.35,2973.05 1664.5,2969C 1663.74,2963.84 1663.08,2958.67 1662.5,2953.5 Z"/></g>
<g><path style="opacity:1" fill="#c78dd5" d="M 1660.5,2953.5 C 1661.17,2953.5 1661.83,2953.5 1662.5,2953.5C 1663.08,2958.67 1663.74,2963.84 1664.5,2969C 1663.35,2973.05 1663.68,2976.88 1665.5,2980.5C 1665.43,2998.28 1665.43,3015.95 1665.5,3033.5C 1664.27,3032.85 1663.61,3031.68 1663.5,3030C 1663.36,3024.11 1663.69,3018.11 1664.5,3012C 1663.83,3008.67 1663.17,3005.33 1662.5,3002C 1663.15,2997.47 1663.48,2992.97 1663.5,2988.5C 1661.7,2976.76 1660.7,2965.09 1660.5,2953.5 Z"/></g>
<g><path style="opacity:1" fill="#c68dd4" d="M 2349.5,2952.5 C 2348.85,2960.73 2347.85,2968.9 2346.5,2977C 2346.6,2988.23 2346.94,2999.4 2347.5,3010.5C 2346.69,3011.22 2346.02,3012.05 2345.5,3013C 2346.56,3016.2 2347.22,3019.2 2347.5,3022C 2346.76,3023.78 2346.09,3025.62 2345.5,3027.5C 2345.92,3029.33 2345.92,3031.33 2345.5,3033.5C 2344.5,3033.5 2343.5,3033.5 2342.5,3033.5C 2342.5,3033.17 2342.5,3032.83 2342.5,3032.5C 2343.65,3032.21 2344.32,3031.38 2344.5,3030C 2344.29,3028.63 2343.96,3027.3 2343.5,3026C 2345.55,3021.44 2345.88,3016.77 2344.5,3012C 2345.09,3004.65 2345.76,2997.31 2346.5,2990C 2343.89,2986.46 2343.89,2982.96 2346.5,2979.5C 2345.85,2970.91 2345.85,2962.24 2346.5,2953.5C 2347.39,2952.89 2348.39,2952.56 2349.5,2952.5 Z"/></g>
<g><path style="opacity:1" fill="#faddac" d="M 1665.5,3034.5 C 1669.22,3035.37 1672.89,3036.53 1676.5,3038C 1683.96,3041.75 1691.29,3045.59 1698.5,3049.5C 1699.17,3049.17 1699.83,3048.83 1700.5,3048.5C 1706.99,3052.36 1713.65,3055.03 1720.5,3056.5C 1721.44,3056.39 1722.28,3056.06 1723,3055.5C 1723.37,3056.42 1723.87,3057.25 1724.5,3058C 1737.98,3062.17 1751.64,3065.83 1765.5,3069C 1818.17,3086.67 1871.5,3102.51 1925.5,3116.5C 1929.04,3116.94 1932.71,3116.94 1936.5,3116.5C 1939.58,3118.13 1942.91,3118.96 1946.5,3119C 1969.03,3120.72 1991.53,3121.89 2014,3122.5C 2046.92,3121.69 2079.42,3117.52 2111.5,3110C 2136.18,3103.3 2160.35,3096.14 2184,3088.5C 2184.33,3088.83 2184.67,3089.17 2185,3089.5C 2188.45,3086.22 2192.12,3085.22 2196,3086.5C 2196.39,3085.57 2197.05,3084.91 2198,3084.5C 2211.48,3080.01 2224.98,3075.51 2238.5,3071C 2274.24,3062.8 2308.91,3050.64 2342.5,3034.5C 2342.5,3123.17 2342.5,3211.83 2342.5,3300.5C 2341.85,3300.2 2341.18,3299.86 2340.5,3299.5C 2339.78,3301.69 2339.11,3303.85 2338.5,3306C 2337.91,3312.34 2338.58,3318.84 2340.5,3325.5C 2364.77,3334.25 2388.77,3343.59 2412.5,3353.5C 2403.11,3382.61 2389.28,3409.28 2371,3433.5C 2352.68,3464.84 2330.18,3493.01 2303.5,3518C 2287.66,3529.09 2271.99,3540.42 2256.5,3552C 2241.9,3560.27 2227.57,3568.94 2213.5,3578C 2194.43,3588.68 2174.77,3598.02 2154.5,3606C 2113.82,3614.63 2072.82,3621.3 2031.5,3626C 2012.83,3626.67 1994.17,3626.67 1975.5,3626C 1955.91,3622.76 1936.25,3620.09 1916.5,3618C 1896.05,3614.63 1875.72,3610.63 1855.5,3606C 1834.53,3597.68 1814.2,3588.01 1794.5,3577C 1779.5,3567.16 1764.17,3557.83 1748.5,3549C 1735.45,3538.95 1722.11,3529.28 1708.5,3520C 1690.38,3502.54 1673.55,3484.04 1658,3464.5C 1646.78,3445.96 1634.78,3427.96 1622,3410.5C 1611.71,3392.08 1603.21,3372.92 1596.5,3353C 1614.08,3346.54 1631.41,3339.54 1648.5,3332C 1655.84,3329.72 1663.17,3327.55 1670.5,3325.5C 1671.4,3318.07 1671.4,3310.74 1670.5,3303.5C 1670.28,3302.06 1669.78,3300.73 1669,3299.5C 1667.89,3300.31 1666.72,3300.97 1665.5,3301.5C 1665.5,3212.5 1665.5,3123.5 1665.5,3034.5 Z"/></g>
<g><path style="opacity:0.998" fill="#fefefe" d="M 2342.5,3300.5 C 2409.77,3326.54 2477.77,3350.7 2546.5,3373C 2610.93,3397.92 2675.6,3422.26 2740.5,3446C 2794.05,3469.61 2847.72,3492.94 2901.5,3516C 2926.52,3528.17 2950.19,3542.33 2972.5,3558.5C 2955.73,3586.37 2939.73,3614.71 2924.5,3643.5C 2694.24,3792.24 2441.57,3883.4 2166.5,3917C 1803.73,3956.73 1461.06,3893.23 1138.5,3726.5C 1129.74,3703.96 1119.57,3681.96 1108,3660.5C 1091.08,3631 1074.41,3601.33 1058,3571.5C 1054.87,3566.07 1051.37,3560.91 1047.5,3556C 1045.89,3555.28 1044.39,3555.45 1043,3556.5C 1041.78,3562.72 1043.44,3568.06 1048,3572.5C 1048.33,3572.17 1048.67,3571.83 1049,3571.5C 1066.49,3604.49 1084.49,3637.15 1103,3669.5C 1111.38,3686.26 1119.22,3703.26 1126.5,3720.5C 1067.71,3689.25 1010.71,3654.58 955.5,3616.5C 968.316,3606.53 981.316,3596.7 994.5,3587C 1019.17,3570.33 1043.83,3553.67 1068.5,3537C 1088.78,3525.02 1109.78,3514.36 1131.5,3505C 1184.83,3482.33 1238.17,3459.67 1291.5,3437C 1347.89,3416.98 1403.89,3395.98 1459.5,3374C 1528.64,3350.9 1597.31,3326.73 1665.5,3301.5C 1666.72,3300.97 1667.89,3300.31 1669,3299.5C 1669.78,3300.73 1670.28,3302.06 1670.5,3303.5C 1671.4,3310.74 1671.4,3318.07 1670.5,3325.5C 1663.17,3327.55 1655.84,3329.72 1648.5,3332C 1631.41,3339.54 1614.08,3346.54 1596.5,3353C 1603.21,3372.92 1611.71,3392.08 1622,3410.5C 1634.78,3427.96 1646.78,3445.96 1658,3464.5C 1673.55,3484.04 1690.38,3502.54 1708.5,3520C 1722.11,3529.28 1735.45,3538.95 1748.5,3549C 1764.17,3557.83 1779.5,3567.16 1794.5,3577C 1814.2,3588.01 1834.53,3597.68 1855.5,3606C 1875.72,3610.63 1896.05,3614.63 1916.5,3618C 1936.25,3620.09 1955.91,3622.76 1975.5,3626C 1994.17,3626.67 2012.83,3626.67 2031.5,3626C 2072.82,3621.3 2113.82,3614.63 2154.5,3606C 2174.77,3598.02 2194.43,3588.68 2213.5,3578C 2227.57,3568.94 2241.9,3560.27 2256.5,3552C 2271.99,3540.42 2287.66,3529.09 2303.5,3518C 2330.18,3493.01 2352.68,3464.84 2371,3433.5C 2389.28,3409.28 2403.11,3382.61 2412.5,3353.5C 2388.77,3343.59 2364.77,3334.25 2340.5,3325.5C 2338.58,3318.84 2337.91,3312.34 2338.5,3306C 2339.11,3303.85 2339.78,3301.69 2340.5,3299.5C 2341.18,3299.86 2341.85,3300.2 2342.5,3300.5 Z"/></g>
<g><path style="opacity:1" fill="#a0a0a0" d="M 1551.5,3408.5 C 1564.87,3424.21 1577.03,3440.88 1588,3458.5C 1602.9,3479.4 1618.57,3499.74 1635,3519.5C 1690.86,3570.99 1753.02,3613.49 1821.5,3647C 1840.99,3654.88 1860.32,3663.05 1879.5,3671.5C 1868.3,3672.64 1857.3,3671.47 1846.5,3668C 1829.81,3662.99 1813.81,3656.32 1798.5,3648C 1756.78,3625.82 1717.44,3600.15 1680.5,3571C 1653.67,3549.5 1629.5,3525.33 1608,3498.5C 1587.71,3472.53 1569.37,3445.2 1553,3416.5C 1552.18,3413.88 1551.68,3411.22 1551.5,3408.5 Z"/></g>
<g><path style="opacity:1" fill="#a0a0a0" d="M 2469.5,3408.5 C 2470.52,3411.38 2470.35,3414.38 2469,3417.5C 2447.67,3452.83 2424,3486.49 2398,3518.5C 2340.84,3577.5 2275,3624.33 2200.5,3659C 2185.96,3664.96 2170.96,3669.29 2155.5,3672C 2151.13,3672.83 2146.8,3672.66 2142.5,3671.5C 2160.18,3663.33 2178.18,3655.83 2196.5,3649C 2267.5,3614.97 2331.67,3571.13 2389,3517.5C 2394.57,3511.35 2399.9,3505.02 2405,3498.5C 2426.75,3468.65 2448.25,3438.65 2469.5,3408.5 Z"/></g>
<g><path style="opacity:0.992" fill="#a3a3a3" d="M 1138.5,3726.5 C 1134.5,3724.5 1130.5,3722.5 1126.5,3720.5C 1119.22,3703.26 1111.38,3686.26 1103,3669.5C 1084.49,3637.15 1066.49,3604.49 1049,3571.5C 1048.67,3571.83 1048.33,3572.17 1048,3572.5C 1043.44,3568.06 1041.78,3562.72 1043,3556.5C 1044.39,3555.45 1045.89,3555.28 1047.5,3556C 1051.37,3560.91 1054.87,3566.07 1058,3571.5C 1074.41,3601.33 1091.08,3631 1108,3660.5C 1119.57,3681.96 1129.74,3703.96 1138.5,3726.5 Z"/></g>
<g><path style="opacity:1" fill="#a3a3a3" d="M 2979.5,3563.5 C 2978.21,3566.07 2976.88,3568.74 2975.5,3571.5C 2972.87,3572.29 2971.04,3573.96 2970,3576.5C 2959.73,3596.05 2949.23,3615.39 2938.5,3634.5C 2934.38,3638.28 2929.71,3641.28 2924.5,3643.5C 2939.73,3614.71 2955.73,3586.37 2972.5,3558.5C 2973.99,3555.91 2976.32,3554.91 2979.5,3555.5C 2979.5,3558.17 2979.5,3560.83 2979.5,3563.5 Z"/></g>
<g><path style="opacity:0.95" fill="#fefdfe" d="M 2979.5,3563.5 C 2990.18,3570.53 3000.85,3577.53 3011.5,3584.5C 2987.72,3601.94 2963.39,3618.61 2938.5,3634.5C 2949.23,3615.39 2959.73,3596.05 2970,3576.5C 2971.04,3573.96 2972.87,3572.29 2975.5,3571.5C 2976.88,3568.74 2978.21,3566.07 2979.5,3563.5 Z"/></g>
</svg>
